HIERARCHY
ROOT joint_0
{
	OFFSET 0.000000 0.000000 0.000000
	CHANNELS 6 Xposition Yposition Zposition Zrotation Yrotation Xrotation 
	JOINT joint_1
	{
		OFFSET 1.363060 -1.794630 0.839290
		CHANNELS 3 Zrotation Yrotation Xrotation
		JOINT joint_2
		{
			OFFSET 2.448110 -6.726130 0.000000
			CHANNELS 3 Zrotation Yrotation Xrotation
			JOINT joint_3
			{
				OFFSET 2.562200 -7.039590 0.000000
				CHANNELS 3 Zrotation Yrotation Xrotation
				JOINT joint_4
				{
					OFFSET 0.157640 -0.433110 2.322550
					CHANNELS 3 Zrotation Yrotation Xrotation
					End Site
					{
						OFFSET 0.000000 0.000000 0.000000
					}
				}
			}
		}
	}
	JOINT joint_5
	{
		OFFSET -1.305520 -1.794630 0.839290
		CHANNELS 3 Zrotation Yrotation Xrotation
		JOINT joint_6
		{
			OFFSET -2.542530 -6.985550 0.000000
			CHANNELS 3 Zrotation Yrotation Xrotation
			JOINT joint_7
			{
				OFFSET -2.568260 -7.056230 0.000000
				CHANNELS 3 Zrotation Yrotation Xrotation
				JOINT joint_8
				{
					OFFSET -0.164730 -0.452590 2.363150
					CHANNELS 3 Zrotation Yrotation Xrotation
					End Site
					{
						OFFSET 0.000000 0.000000 0.000000
					}
				}
			}
		}
	}
	JOINT joint_9
	{
		OFFSET 0.028270 2.035590 -0.193380
		CHANNELS 3 Zrotation Yrotation Xrotation
		JOINT joint_10
		{
			OFFSET 0.056720 2.048850 -0.042750
			CHANNELS 3 Zrotation Yrotation Xrotation
			JOINT joint_11
			{
				OFFSET -0.054170 1.746240 0.172020
				CHANNELS 3 Zrotation Yrotation Xrotation
				JOINT joint_12
				{
					OFFSET 0.104070 1.761360 -0.123970
					CHANNELS 3 Zrotation Yrotation Xrotation
					End Site
					{
						OFFSET 0.000000 0.000000 0.000000
					}
				}
			}
			JOINT joint_13
			{
				OFFSET 3.362410 1.200890 -0.311210
				CHANNELS 3 Zrotation Yrotation Xrotation
				JOINT joint_14
				{
					OFFSET 4.983000 -0.000000 -0.000000
					CHANNELS 3 Zrotation Yrotation Xrotation
					JOINT joint_15
					{
						OFFSET 3.483560 -0.000000 -0.000000
						CHANNELS 3 Zrotation Yrotation Xrotation
						JOINT joint_16
						{
							OFFSET 0.000000 0.000000 0.000000
							CHANNELS 3 Zrotation Yrotation Xrotation
							End Site
							{
								OFFSET 0.000000 0.000000 0.000000
							}
						}
					}
				}
			}
			JOINT joint_17
			{
				OFFSET -3.136600 1.374050 -0.404650
				CHANNELS 3 Zrotation Yrotation Xrotation
				JOINT joint_18
				{
					OFFSET -5.241900 -0.000000 -0.000000
					CHANNELS 3 Zrotation Yrotation Xrotation
					JOINT joint_19
					{
						OFFSET -3.444170 -0.000000 -0.000000
						CHANNELS 3 Zrotation Yrotation Xrotation
						JOINT joint_20
						{
							OFFSET 0.000000 0.000000 0.000000
							CHANNELS 3 Zrotation Yrotation Xrotation
							End Site
							{
								OFFSET 0.000000 0.000000 0.000000
							}
						}
					}
				}
			}
		}
	}
}
MOTION
Frames: 17
Frame Time: 0.031667
-9.504039 13.213994 1.398569 -12.802456 78.930977 -3.364663 -4.690856 33.297735 -20.551021 5.104371 25.481846 9.740238 1.708224 -38.337755 0.203513 -29.656700 55.436893 -2.392169 32.864830 -8.352353 4.339311 -24.224103 25.369273 39.114386 41.677860 -24.378366 6.602845 -39.859410 -50.667761 -44.710242 1.978091 -27.939411 16.163546 7.822816 21.019937 13.213699 -28.523568 41.525159 46.911194 30.029822 39.947811 -42.125552 -97.937741 -33.576621 20.973247 38.561940 -46.868720 -33.803455 40.911710 32.731211 44.313228 8.718919 -33.166047 -26.901190 42.532711 37.040503 16.265507 -52.445983 -15.089073 -62.141063 -30.723799 -4.475748 -27.883698 12.462260 11.610179 29.109355 
-9.044865 13.234505 1.380784 -15.252708 78.662460 -5.019760 13.018669 2.668327 -61.566203 -55.469268 -23.676568 5.108115 21.394123 28.501706 -2.464717 17.653666 -28.137901 -21.651119 -29.041105 -35.720599 -43.956717 25.991878 19.086926 46.834195 26.155988 30.423181 21.886341 5.488051 -15.208827 -33.160075 34.333111 -32.620138 35.626307 10.971071 -45.190781 5.670954 -11.711909 -9.717798 31.284488 7.951523 -3.656429 -53.357049 -122.386848 -89.015138 57.710441 64.431240 -71.204707 -48.374142 -3.987739 -30.205309 -22.229194 3.709571 -18.100096 25.365203 31.338239 66.008813 32.311029 -54.870600 -6.237160 -50.259876 15.691858 20.742306 15.802276 20.445197 17.860660 -6.579763 
-8.582102 13.253814 1.375227 -16.009581 78.725639 -5.274573 -8.044691 3.386740 -81.282940 -28.126183 57.487451 55.966598 35.495107 -31.877326 -11.493056 -13.745003 47.497697 33.104445 34.064696 10.486357 -43.273390 -33.378190 -21.707395 90.876492 11.871869 28.321854 40.280925 -20.571343 -53.894045 -67.947489 -37.212584 -11.060292 0.600162 2.148895 -23.040630 -0.737537 10.315813 18.406134 -15.558556 24.813032 -38.034069 1.166223 -120.142402 -71.489297 54.922257 -19.109580 -44.606156 31.033828 15.691166 -3.219328 -20.590300 -24.402749 17.634150 9.638825 115.352532 76.694359 5.925516 -9.271250 42.560128 -8.626275 15.846504 37.855702 -9.818186 42.746620 -44.828590 -5.996485 
-8.108243 13.300405 1.390545 -14.743326 79.047958 -3.570675 24.118421 -4.598250 -50.882260 20.940140 19.897641 52.557911 -0.048611 14.549983 -24.496575 -46.609852 -22.690620 -23.314840 -38.930478 -4.637406 -51.828638 10.959764 18.225088 47.585067 -35.900398 -3.950325 -5.570441 -47.702536 4.128851 -72.427591 -21.712137 32.049097 -8.937976 26.684035 -8.123573 20.046790 -35.685529 13.417687 43.711261 -33.488149 4.105675 -5.319591 -96.046637 -79.323705 44.320643 -0.943752 -58.825489 -51.690048 -11.108855 35.609493 41.526471 6.914522 40.794739 -33.993987 72.036040 67.960667 76.505123 -61.662269 15.387719 -5.745575 -50.016846 5.804695 37.735367 -41.437491 -13.088817 -23.403594 
-7.625435 13.354099 1.398971 -12.545284 79.557106 -1.045868 0.610263 6.702474 -46.967734 27.081199 50.795610 70.051609 -15.497463 33.157451 12.564396 -26.574571 47.502064 23.861001 39.317386 -3.818261 -26.912430 -38.665633 -46.831584 49.157160 18.990324 0.862165 37.485224 -23.285221 -57.506138 -68.183771 20.194615 12.295612 7.350206 -25.623824 -7.307283 24.782765 37.488714 21.637792 9.569235 -3.470794 -12.902634 -22.659253 -52.691853 -69.691723 44.434891 8.229025 2.637515 -54.623869 9.195466 -13.958125 24.057072 10.783501 -17.591878 -25.783750 76.383895 77.636257 48.032759 11.022351 51.417850 -39.527619 -20.705046 -41.328251 21.960758 -19.402491 -21.673465 -20.800493 
-7.136471 13.432327 1.396847 -12.834898 80.075310 -0.522212 27.461435 1.553327 -68.627761 -59.589865 16.025864 35.675171 37.205186 31.950941 3.857774 28.716321 8.368198 -0.542702 39.486864 -28.222479 12.022300 23.059765 2.873689 49.732258 -5.405088 -33.368534 -14.936583 -0.482707 -38.406943 -0.889606 43.565992 -16.279141 27.914348 21.820228 26.998251 22.439964 -17.633987 29.765967 32.384664 7.459951 -36.081392 -64.220087 113.665548 -77.634133 -102.100274 61.229026 -51.702607 -39.501960 17.517401 -15.446786 11.025919 43.988043 14.073072 -24.246011 74.855241 53.762127 85.013827 -44.208739 55.821513 -34.349605 14.542174 -6.223081 -5.515345 -30.391007 -26.471350 -15.898126 
-6.670526 13.501952 1.377144 -15.472880 80.590347 -2.654320 -19.091213 -13.870680 -18.609306 -7.503296 61.511841 76.379839 -46.978704 -29.120412 -37.656041 -15.804191 34.788075 -49.747301 -29.173593 -3.269491 -54.525482 -26.436839 -25.947069 128.951548 11.901384 12.479878 41.970319 -21.463094 -14.247998 -19.732595 -38.186148 -43.839262 -28.404874 -1.513800 26.285877 32.743935 -21.139278 8.202608 5.209494 13.629023 -13.554738 -53.912439 -58.312885 -55.328231 29.632691 34.080110 4.867055 -24.499880 49.467259 1.365457 30.623785 19.784358 10.661182 -31.323282 96.186407 36.484791 7.319646 -61.132119 43.146841 -50.141643 -23.715682 -31.357889 36.253463 15.881451 -8.110250 -16.881807 
-6.211817 13.555721 1.369746 -18.887506 81.359276 -5.776923 16.772886 40.093063 -45.220436 -49.832669 18.460684 44.661363 -27.833965 -31.948456 -33.175911 -12.620669 -0.732876 -11.162213 21.430467 16.596789 -52.162060 -8.444682 25.652910 122.045199 35.679607 -16.489729 26.471958 20.623238 -43.320723 30.905247 -40.909365 -4.418995 -36.162065 1.677821 -43.904773 -16.626869 -5.247488 -19.884007 22.412402 35.249559 -29.875667 -41.337490 -93.810108 -38.939568 42.235958 -18.350361 -36.320730 -7.124723 13.981888 -3.190879 1.203737 -23.575120 17.800852 -3.340934 -79.713195 87.071997 -122.595545 -45.533740 35.261405 -18.666415 -21.408351 -4.382054 -5.097603 -8.238331 -17.367540 -8.451827 
-5.754084 13.606577 1.388607 -22.488663 82.385277 -9.056768 -44.220029 13.067728 -76.515527 -5.170354 52.913239 71.740135 -33.179481 -38.103446 45.549213 1.830595 -35.758164 -36.277059 17.725630 29.615462 -1.402861 22.087503 -2.637056 124.932394 -28.361061 -14.075855 14.776830 26.503466 2.060882 -52.212228 -14.440767 19.228290 10.189579 24.029040 -13.485279 -9.825160 -21.125622 -38.900886 -19.639503 26.083610 19.327419 17.981162 -99.802643 -24.388574 18.193976 17.814912 -6.596710 -37.580944 45.425334 38.938154 22.920956 31.646698 44.817311 7.622764 -54.059910 87.085405 -91.360752 -47.455843 -10.188586 -33.661450 -54.348322 36.658593 36.403741 -33.483969 4.433942 -16.728045 
-5.301321 13.663393 1.430833 -25.437986 83.286415 -11.655134 35.567874 -7.595199 -18.086444 28.190547 7.345356 110.063036 5.086949 3.375288 -21.972493 14.698588 22.601006 -52.410988 18.612433 -41.884207 -40.375190 -35.846512 -44.487072 52.124422 11.183874 -11.912870 42.061535 3.134985 -14.388949 2.223462 31.143764 -32.253194 -43.416589 21.879898 23.063538 -17.532340 21.564003 -17.370905 -19.474039 28.868969 43.289813 -21.662498 -62.383849 -75.546166 71.580711 16.954757 -24.644360 12.711720 4.413409 -37.548861 5.846575 -15.587047 22.851540 6.298198 -79.176260 81.081457 -115.379920 -35.967756 -11.846510 -28.022027 -14.618801 -48.779008 34.578195 26.173366 -11.513676 22.854501 
-4.854264 13.730706 1.477207 -27.362179 84.278252 -13.071217 36.656946 18.918576 -25.686726 -10.840495 30.063169 68.053336 -7.558013 -37.449326 16.146388 49.057929 1.542325 0.894250 4.692829 -12.396284 -31.669251 -3.630227 -5.289422 105.279159 -26.211967 -37.048402 -40.398541 38.530205 -26.456886 10.269394 16.387042 -17.081348 20.246651 17.121631 32.743334 -33.232765 34.071726 35.138777 29.958123 30.860471 -39.959883 17.368684 -60.596593 -24.612279 72.655541 15.614059 -0.049927 -48.597927 22.629406 23.842534 36.757268 19.526792 -1.009981 6.346137 59.297426 31.232255 22.047451 -0.378469 41.648641 -40.710441 -15.232138 -23.772226 31.643667 8.126444 3.524184 -24.924829 
-4.434174 13.791907 1.522553 -32.812950 85.215744 -18.129774 33.130872 -28.471190 -85.022912 -18.186138 10.998805 35.359075 33.001418 -36.385761 -13.962497 -14.910705 50.141138 -24.132017 -32.248262 24.011749 4.529516 43.243138 18.829932 106.757578 -22.161941 -20.940097 -33.280701 44.354302 -4.398989 -32.383557 22.655430 22.106789 -39.765481 -48.463090 -44.888852 18.010357 -14.455124 -4.918953 27.361238 12.004107 20.807007 -12.692979 122.289861 -89.491462 179.732227 -10.387982 -9.301137 -26.317801 -26.552220 1.118891 16.261169 -32.628817 36.017515 -36.417320 50.200835 83.396886 97.887543 -62.904290 -3.074642 -32.266832 -56.195071 7.934677 44.673131 -7.433667 28.331417 -32.836026 
-4.034414 13.848228 1.565736 -39.149872 85.516022 -24.179087 -48.320265 -0.849065 -82.120582 -16.882768 26.592823 46.748245 25.955576 -32.656114 31.870033 54.039374 -16.158878 10.960895 22.742738 -0.359964 8.236826 -30.645137 -10.686985 58.317644 -32.879502 14.072864 -0.559243 9.342620 -6.401796 -12.851302 -10.320598 4.291295 27.104513 17.071990 -2.539305 10.267429 -2.522871 23.890020 3.625791 26.223385 -25.430339 -17.922719 129.288795 -73.574551 -173.966413 37.189993 11.474588 -36.906798 29.099926 39.511104 4.730656 -11.857830 -23.899261 31.164532 71.060975 67.603359 30.876408 -14.771408 45.645102 -49.089567 12.682496 5.419921 32.497520 7.084838 -29.310758 10.088778 
-3.661366 13.910210 1.598949 -50.529392 85.616112 -35.274521 26.564768 -33.662149 -79.552022 30.291409 57.294985 58.209567 36.931824 13.345473 40.689056 52.907628 26.716203 5.395335 -15.579573 -41.143258 11.555635 -27.747724 -50.687250 92.790580 -3.202902 -4.679501 10.641714 8.978004 -24.996133 -56.237124 7.451514 -15.772201 -11.517970 39.685361 -18.596869 -15.671662 -40.811190 -13.543890 -17.755730 61.821305 34.908899 -57.045189 -110.658270 -71.502181 56.724601 45.117260 -31.200068 -16.617014 9.371176 36.277576 11.277708 -9.886826 41.912967 -3.182903 50.940192 50.075801 54.909441 -39.544429 47.196469 -10.493188 -31.487377 -32.336202 32.064759 39.851650 -0.402347 -25.771510 
-3.304685 13.968498 1.626381 -61.906971 85.509636 -46.461094 2.182740 -2.613626 -64.450553 24.528327 -13.824306 71.671805 -12.473054 -26.105211 -18.754433 29.229142 18.134007 -20.744459 -39.471656 19.643491 -46.560362 -32.248978 -34.185385 92.310938 9.853451 -27.247689 42.148053 17.455419 -12.966901 -58.495398 -25.491913 3.067791 24.688873 7.606281 -15.035579 -27.284628 10.975422 43.786876 50.052340 67.625254 -37.181138 -55.061145 -92.673165 -36.852785 52.103046 -3.606229 -49.143107 -52.772825 -6.522114 14.916762 32.713537 36.275008 -41.011812 -26.094198 58.724499 48.555531 18.209281 -20.904976 -16.748999 -83.932716 25.252677 31.972041 36.496703 34.199914 23.700765 -12.330099 
-2.961126 14.028904 1.650556 -71.269341 85.145607 -55.439491 35.598698 -19.085348 -29.237224 23.972115 9.790267 96.898765 -40.582297 -42.111511 -14.022715 25.785102 -26.921097 -0.236864 -3.013082 -19.007902 6.419021 -4.320974 -40.345009 134.935333 -25.035762 -7.491672 -28.853891 37.476564 1.935833 -66.540146 -28.528482 -24.518440 -15.202390 -43.652934 14.362301 0.979154 24.966140 23.951802 -13.662474 59.113910 -38.619130 -35.099342 -64.548267 -84.469030 62.882226 39.898812 -20.062255 -10.132775 45.165844 -41.023320 19.387725 -0.931886 8.223732 13.716221 90.527986 80.740126 43.448552 18.441636 -1.859360 -18.420540 -46.616074 -0.830848 -13.512575 39.241888 2.747912 41.262774 
-2.627868 14.081592 1.663784 -76.711693 84.918022 -60.578125 -46.134660 33.158489 -17.084064 -51.410889 18.488099 42.841069 -17.593511 45.350464 12.739430 32.463154 19.840211 -7.679093 -9.254941 -42.753195 -21.058776 31.024812 -59.297190 109.736920 39.331704 5.479075 -10.891258 -4.333628 12.115492 -65.063289 33.462819 -12.163313 4.733172 -33.311976 27.848563 -31.008905 18.842688 -18.302198 -22.865431 4.812820 5.914320 -48.470714 -88.144697 -24.196475 -7.734021 40.989841 -42.519577 -62.121127 -31.222158 25.651098 29.355879 -18.517866 -19.819956 0.276312 59.224497 22.197716 43.235465 -61.743556 -18.518516 -29.316817 -51.378242 -41.873087 -18.029455 30.641528 -27.403349 40.814865 
